# xmcd CD database file
#
# Track frame offsets:
#	182
#	20425
#	38895
#	51415
#	67697
#	85462
#	99077
#	109682
#	125770
#	138620
#	156605
#	172435
#
# Disc length: 2451 seconds
#
# Revision: 5
# Processed by: cddbd v1.5.2PL0 Copyright (c) Steve Scherf et al.
# Submitted via: CDex 1.51
#
DISCID=ac09910c
DTITLE=Various Artist - Tammy Wynette Remembered
DYEAR=2000
DGENRE=Country
TTITLE0=Elton John - Stand By Your Man
TTITLE1=Trisha Yearwood - 'Til I Get It Right
TTITLE2=Rosanne Cash - D-I-V-O-R-C-E
TTITLE3=Melissa Etheridge - Apartment #9
TTITLE4=Wynonna - Woman To Woman
TTITLE5=George Jones - Take Me To Your World
TTITLE6=K.T. Oslin - Your Good Girl's Gonna Go Bad
TTITLE7=Lorrie Morgan - You And Me
TTITLE8=Sara Evans - I Don't Wanna Play House
TTITLE9=Emmylou Harris with Linda Ronstadt and Anna and Kate McGarrigle - Golden Ring
TTITLE10=Faith Hill - 'Til I Can Make It On My Own
TTITLE11=Tammy Wynette and Brian Wilson - In My Room
EXTD=Tribute album to Tammy Wynette YEAR: 2000
EXTT0=
EXTT1=
EXTT2=
EXTT3=
EXTT4=
EXTT5=
EXTT6=
EXTT7=
EXTT8=
EXTT9=
EXTT10=
EXTT11=
PLAYORDER=
